<?xml version="1.0" encoding="utf-8"?>
<!-- Generator: Adobe Illustrator 16.0.0, SVG Export Plug-In . SVG Version: 6.00 Build 0)  -->
<!DOCTYPE svg PUBLIC "-//W3C//DTD SVG 1.1//EN" "http://www.w3.org/Graphics/SVG/1.1/DTD/svg11.dtd">
<svg version="1.1" id="圖層_1" xmlns="http://www.w3.org/2000/svg" xmlns:xlink="http://www.w3.org/1999/xlink" x="0px" y="0px"
	 width="300px" height="300px" viewBox="0 0 300 300" enable-background="new 0 0 300 300" xml:space="preserve">
<g>
	<defs>
		<rect id="SVGID_1_" width="300" height="300"/>
	</defs>
	<clipPath id="SVGID_2_">
		<use xlink:href="#SVGID_1_"  overflow="visible"/>
	</clipPath>
	<path clip-path="url(#SVGID_2_)" fill="#666666" d="M144.779,69.666L77.043,1.937C75.607,0.5,73.256,0.504,71.819,1.94
		L4.084,69.664c-1.437,1.437-1.437,4.213,0,5.213h17.806v70.003c0,2.032,1.667,3.997,3.698,3.997h29.302v-43.161
		c0-2.032,2.279-3.839,4.311-3.839h30.562c2.032,0,4.127,1.807,4.127,3.839v43.161h29.486c2.032,0,3.514-1.965,3.514-3.997V74.877
		h17.889C146.216,73.877,146.216,71.103,144.779,69.666"/>
</g>
<g>
	<defs>
		<rect id="SVGID_3_" width="300" height="300"/>
	</defs>
	<clipPath id="SVGID_4_">
		<use xlink:href="#SVGID_3_"  overflow="visible"/>
	</clipPath>
	<path clip-path="url(#SVGID_4_)" fill="#666666" d="M225,11.804c16.88,0,32.75,6.574,44.686,18.51
		C281.622,42.25,288.196,58.12,288.196,75s-6.574,32.75-18.511,44.686c-11.936,11.936-27.806,18.51-44.686,18.51
		s-32.75-6.574-44.686-18.51C168.378,107.75,161.804,91.88,161.804,75s6.574-32.75,18.511-44.686
		C192.25,18.378,208.12,11.804,225,11.804 M225,1c-40.869,0-74,33.131-74,74s33.131,74,74,74s74-33.131,74-74S265.869,1,225,1"/>
	<path clip-path="url(#SVGID_4_)" fill="#666666" d="M220.949,98.661l-5.673-65.473c-0.486-5.186,4.7-8.751,9.724-8.751
		c5.024,0,10.21,3.565,9.724,8.751l-5.673,65.473H220.949z M225,107.088c5.024,0,9.562,4.052,9.562,9.237
		c0,5.186-4.376,9.238-9.562,9.238c-5.186,0-9.562-4.052-9.562-9.238C215.438,111.141,219.977,107.088,225,107.088"/>
</g>
<g>
	<defs>
		<rect id="SVGID_5_" width="300" height="300"/>
	</defs>
	<clipPath id="SVGID_6_">
		<use xlink:href="#SVGID_5_"  overflow="visible"/>
	</clipPath>
	<path clip-path="url(#SVGID_6_)" fill="#666666" d="M131.123,187.877h-19.232v-4.793c0-3.403-3.12-6.207-6.523-6.207H44.983
		c-3.404,0-6.093,2.804-6.093,6.207v4.793H19.228c-9.927,0-18.337,7.384-18.337,17.311v50.084c0,9.927,8.41,18.605,18.337,18.605
		h111.895c9.927,0,17.768-8.679,17.768-18.605v-50.084C148.891,195.261,141.049,187.877,131.123,187.877 M75.391,263.487
		c-18.142,0-32.848-14.707-32.848-32.848c0-18.143,14.706-32.849,32.848-32.849c18.142,0,32.848,14.706,32.848,32.849
		C108.238,248.78,93.532,263.487,75.391,263.487"/>
	<path clip-path="url(#SVGID_6_)" fill="#666666" d="M50.352,230.64c0-13.828,11.21-25.039,25.039-25.039
		c13.828,0,25.038,11.211,25.038,25.039s-11.21,25.039-25.038,25.039C61.562,255.679,50.352,244.468,50.352,230.64"/>
</g>
<g>
	<defs>
		<rect id="SVGID_7_" width="300" height="300"/>
	</defs>
	<clipPath id="SVGID_8_">
		<use xlink:href="#SVGID_7_"  overflow="visible"/>
	</clipPath>
	<path clip-path="url(#SVGID_8_)" fill="#666666" d="M295.722,211.069l-15.063-1.111c-1.313-4.899-3.234-9.542-5.714-13.835
		l9.901-11.465c1.26-1.26,1.264-3.322,0.004-4.583l-15.035-15.036c-1.26-1.261-3.321-1.261-4.582,0l-11.463,9.892
		c-4.293-2.48-8.936-4.419-13.835-5.733l-1.112-15.089c0-1.783-1.458-3.231-3.239-3.231h-21.267c-1.782,0-3.241,1.448-3.241,3.231
		l-1.11,15.094c-4.9,1.314-9.542,3.251-13.835,5.73l-11.464-9.893c-1.262-1.261-3.323-1.262-4.584,0l-15.037,15.035
		c-1.261,1.262-1.261,3.323,0,4.584l9.892,11.465c-2.479,4.292-4.419,8.935-5.731,13.834l-15.087,1.111
		c-1.782,0-3.228,1.458-3.228,3.241v21.265c0,1.783,1.445,3.241,3.228,3.241l15.093,1.112c1.313,4.898,3.25,9.542,5.729,13.835
		l-9.893,11.464c-1.261,1.26-1.262,3.323-0.001,4.583l15.037,15.037c1.26,1.261,3.321,1.261,4.583,0l11.464-9.891
		c4.293,2.479,8.936,4.418,13.835,5.731l1.11,15.023c0,1.782,1.459,3.165,3.241,3.165h21.267c1.781,0,3.24-1.383,3.24-3.165
		l1.111-15.062c4.9-1.313,9.542-3.233,13.835-5.713l11.464,9.901c1.261,1.26,3.323,1.265,4.584,0.004l15.037-15.034
		c1.26-1.261,1.26-3.322,0-4.582l-9.892-11.464c2.479-4.293,4.418-8.936,5.731-13.834l15.027-1.112c1.783,0,3.169-1.458,3.169-3.241
		v-21.265C298.891,212.527,297.505,211.069,295.722,211.069 M224.949,251.581c-14.711,0-26.637-11.927-26.637-26.638
		c0-14.712,11.926-26.638,26.637-26.638s26.638,11.926,26.638,26.638C251.587,239.654,239.66,251.581,224.949,251.581"/>
	<path clip-path="url(#SVGID_8_)" fill="#666666" d="M241.968,224.943c0,9.399-7.619,17.018-17.018,17.018
		c-9.399,0-17.02-7.618-17.02-17.018s7.62-17.018,17.02-17.018C234.349,207.926,241.968,215.544,241.968,224.943"/>
</g>
</svg>
