<?xml version="1.0" encoding="UTF-8" standalone="no"?>
<svg width="350px" height="350px" viewBox="0 0 350 350" version="1.1" xmlns="http://www.w3.org/2000/svg" xmlns:xlink="http://www.w3.org/1999/xlink" xmlns:sketch="http://www.bohemiancoding.com/sketch/ns">
    <!-- Generator: Sketch 3.3.3 (12072) - http://www.bohemiancoding.com/sketch -->
    <title>Artboard 1</title>
    <desc>Created with Sketch.</desc>
    <defs></defs>
    <g id="Page-1" stroke="none" stroke-width="1" fill="none" fill-rule="evenodd" sketch:type="MSPage">
        <g id="Artboard-1" sketch:type="MSArtboardGroup">
            <g id="Flower-1" sketch:type="MSLayerGroup" transform="translate(-6.000000, 6.000000)" fill="#434343">
                <path d="M125.2944,160.644696 C115.3512,160.644696 106.056,155.542 101.052,147.314174 C99.7992,145.27887 98.7624,142.059913 96.2856,134.358957 C95.4576,131.789565 94.5144,128.823217 93.456,125.647565 C92.4048,128.808783 91.4616,131.746261 90.6264,134.315652 C88.1496,142.045478 87.0984,145.27887 85.8456,147.314174 C80.8344,155.542 71.5392,160.644696 61.5888,160.644696 C56.736,160.644696 51.9336,159.417739 47.7072,157.108174 C41.0616,153.470609 36.3528,147.581217 34.4376,140.486522 C32.5728,133.579478 33.6096,126.376522 37.3752,120.191217 C38.6136,118.170348 41.0184,115.709217 46.8216,109.834261 C48.3768,108.268087 50.0976,106.528696 51.9408,104.644957 C50.2416,105.041913 48.6432,105.395565 47.16,105.734783 C39.3912,107.53913 36.144,108.289739 33.804,108.289739 C19.044,108.289739 7.0416,96.409913 7.0416,81.801913 C7.0416,67.193913 19.044,55.314087 33.804,55.314087 C36.1368,55.314087 39.3768,56.0502609 47.1312,57.8401739 C48.78,58.229913 50.5656,58.6268696 52.4736,59.0671304 C50.4576,57.0029565 48.5712,55.0903478 46.8792,53.3942609 C41.0472,47.5048696 38.628,45.0365217 37.3896,42.994 C33.6312,36.8447826 32.5872,29.6418261 34.452,22.7203478 C36.36,15.6328696 41.0688,9.72904348 47.7144,6.09147826 C51.948,3.78913043 56.7504,2.56217391 61.6032,2.56217391 C71.5464,2.56217391 80.8416,7.66486957 85.86,15.8710435 C87.12,17.928 88.1712,21.1325217 90.6408,28.8695652 C91.4616,31.4317391 92.3976,34.3547826 93.456,37.5232174 C94.5072,34.3692174 95.4216,31.4750435 96.2496,28.9273043 C98.748,21.1613913 99.7992,17.9207826 101.0664,15.8710435 C106.056,7.66486957 115.3512,2.56217391 125.2944,2.56217391 C130.1544,2.56217391 134.964,3.78913043 139.2048,6.09147826 C145.8288,9.70017391 150.5304,15.5823478 152.46,22.6698261 C154.3392,29.5913043 153.288,36.8086957 149.5296,42.994 C148.2768,45.0148696 145.872,47.4687826 140.0832,53.3437391 C138.384,55.0614783 136.4904,56.9885217 134.46,59.0671304 C136.3608,58.6268696 138.1464,58.229913 139.7808,57.8401739 C147.5352,56.0502609 150.768,55.314087 153.1224,55.314087 C167.8752,55.314087 179.8848,67.193913 179.8848,81.801913 C179.8848,96.409913 167.8752,108.289739 153.1224,108.289739 C150.7896,108.289739 147.5424,107.53913 139.7736,105.734783 C138.2904,105.395565 136.6848,105.027478 134.9928,104.644957 C136.8072,106.507043 138.4992,108.224783 140.04,109.776522 C145.8864,115.665913 148.2984,118.16313 149.5512,120.191217 C153.3024,126.35487 154.3464,133.572261 152.4672,140.486522 C150.5448,147.552348 145.8432,153.456174 139.212,157.079304 C134.9568,159.417739 130.1544,160.644696 125.2944,160.644696 L125.2944,160.644696 Z M93.4488,96.8357391 C96.4584,96.8357391 99.1584,98.6689565 100.2456,101.447652 C104.5728,112.504696 107.82,122.623478 110.1816,130.014087 C111.528,134.171304 113.0328,138.884261 113.6016,139.981304 C117.072,145.661391 125.8344,147.949304 132.1488,144.477739 C135.2808,142.774435 137.4768,140.039043 138.3552,136.784 C139.1904,133.694957 138.7296,130.454348 137.0088,127.675652 C136.3464,126.730174 132.7464,123.107043 129.5856,119.895304 C124.0704,114.337913 116.5392,106.716348 108.7056,97.8028696 C106.6824,95.4933043 106.344,92.166087 107.8632,89.5173043 C109.3824,86.854087 112.4208,85.4394783 115.488,85.951913 C126.3456,87.8645217 136.0224,90.0802609 143.0712,91.7258261 C147.2616,92.7001739 152.0208,93.79 153.216,93.8838261 C159.8112,93.8838261 165.276,88.4707826 165.276,81.8307826 C165.276,75.1907826 159.8112,69.7777391 153.108,69.7777391 C152.0352,69.849913 147.2688,70.9469565 143.0856,71.9213043 C135.9144,73.574087 126.0936,75.8547826 115.0344,77.7673913 C111.9816,78.2798261 108.9504,76.8652174 107.4312,74.2164348 C105.9048,71.5532174 106.2432,68.2404348 108.2664,65.9308696 C116.28,56.7647826 124.0056,48.97 129.636,43.289913 C132.7896,40.0926087 136.3824,36.483913 137.088,35.4662609 C138.7296,32.7886087 139.1904,29.548 138.348,26.4445217 C137.4768,23.203913 135.2664,20.4685217 132.1488,18.7796522 C125.8344,15.3225217 117.1008,17.5382609 113.5296,23.3771304 C113.0112,24.3875652 111.492,29.1293913 110.1384,33.3154783 C107.7912,40.6844348 104.5584,50.7815652 100.2456,61.7736522 C99.1584,64.5667826 96.4584,66.4 93.4488,66.4 C90.4392,66.4 87.7464,64.5667826 86.6592,61.7736522 C82.3464,50.7526957 79.1064,40.6411304 76.752,33.2577391 C75.4128,29.086087 73.9008,24.3731304 73.332,23.2616522 C69.876,17.596 61.1064,15.308087 54.7776,18.7652174 C51.6456,20.4829565 49.4352,23.2183478 48.5568,26.4733913 C47.7216,29.5624348 48.204,32.7886087 49.896,35.5673043 C50.5512,36.4983478 54.144,40.1214783 57.312,43.3187826 C62.9424,49.0133043 70.6464,56.7936522 78.6456,65.9308696 C80.6688,68.2404348 81.0072,71.5532174 79.488,74.2164348 C77.9616,76.8652174 74.9088,78.2726087 71.8848,77.7673913 C60.8256,75.8547826 51.0048,73.5957391 43.8264,71.9213043 C39.636,70.9397391 34.8912,69.849913 33.6888,69.7777391 C27.1008,69.7777391 21.6432,75.1907826 21.6432,81.8307826 C21.6432,88.4707826 27.1008,93.8838261 33.8184,93.8838261 C34.8984,93.79 39.6576,92.7001739 43.8552,91.7258261 C50.9112,90.0802609 60.5808,87.8645217 71.4456,85.951913 C74.484,85.4250435 77.5368,86.8396522 79.0632,89.5173043 C80.5824,92.166087 80.244,95.4933043 78.2136,97.8028696 C70.344,106.752435 62.7768,114.395652 57.2544,119.960261 C54.1008,123.14313 50.5296,126.751826 49.8168,127.769478 C48.1896,130.432696 47.7144,133.673304 48.5496,136.762348 C49.4352,140.017391 51.6456,142.752783 54.7848,144.463304 C61.0632,147.913217 69.8256,145.697478 73.3824,139.851391 C73.8864,138.848174 75.4056,134.128 76.752,129.956348 C79.1136,122.580174 82.3536,112.461391 86.6664,101.433217 C87.7392,98.6689565 90.4464,96.8357391 93.4488,96.8357391 L93.4488,96.8357391 L93.4488,96.8357391 Z" id="Shape" sketch:type="MSShapeGroup"></path>
            </g>
            <g id="Flower-2" sketch:type="MSLayerGroup" transform="translate(176.000000, 3.000000)" fill="#434343">
                <path d="M86.62416,166.89384 C67.3032,166.89384 51.81024,157.30992 49.36728,144.4896 C46.9452,145.37352 44.35608,145.79808 41.6208,145.79808 C30.11592,145.79808 17.74104,137.78712 10.092,125.36352 C3.95328,115.38984 1.8444,104.42088 4.30128,95.2476 C5.58888,90.45912 8.12928,86.40144 11.60928,83.49912 C8.13624,80.60376 5.6028,76.55304 4.32216,71.7576 C1.86528,62.57736 3.97416,51.58752 10.10592,41.62776 C17.74104,29.22504 30.11592,21.18624 41.63472,21.18624 C44.36304,21.18624 46.95216,21.62472 49.36728,22.50168 C51.80328,9.68136 67.29624,0.09048 86.62416,0.09048 C105.95904,0.09048 121.45896,9.69528 123.88104,22.52256 C126.30312,21.63864 128.8992,21.20016 131.62752,21.20016 C143.1324,21.20016 155.51424,29.21808 163.15632,41.64168 C169.28808,51.61536 171.40392,62.6052 168.94008,71.78544 C167.65944,76.56696 165.13296,80.61768 161.66688,83.49912 C165.13992,86.39448 167.67336,90.4452 168.954,95.2476 C171.41784,104.4348 169.29504,115.41768 163.15632,125.37048 C155.52816,137.76624 143.15328,145.79112 131.65536,145.79112 L131.65536,145.79112 C128.8992,145.79112 126.30312,145.34568 123.88104,144.46176 C121.45896,157.296 105.966,166.89384 86.62416,166.89384 L86.62416,166.89384 Z M57.14856,124.43784 C58.3944,124.43784 59.64024,124.77888 60.7608,125.454 C63.20376,126.92952 64.49136,129.74832 64.01112,132.56016 C63.24552,137.09808 62.97408,139.87512 62.97408,140.91912 C62.97408,146.59848 73.10088,152.95296 86.63808,152.95296 C100.18224,152.95296 110.29512,146.59848 110.29512,140.91912 C110.29512,139.85424 110.01672,137.06328 109.25112,132.53232 C108.77088,129.72744 110.06544,126.88776 112.5084,125.42616 C114.95136,123.93672 118.0416,124.11768 120.31056,125.84376 C125.23128,129.5604 127.18704,130.68792 127.6812,130.94544 C133.88952,134.2932 145.1856,128.064 151.31736,118.06248 C155.34024,111.54096 156.95496,104.1912 155.5212,98.82504 C154.83912,96.28464 153.55152,94.47504 151.70016,93.46584 C151.21296,93.1944 149.1876,92.17128 143.2716,90.04152 C140.51544,89.03232 138.678,86.42232 138.678,83.50608 C138.678,80.56896 140.51544,77.94504 143.2716,76.97064 C147.94872,75.28632 150.67008,74.10312 151.67232,73.56024 C153.54456,72.54408 154.8252,70.76232 155.50728,68.20104 C156.948,62.84184 155.3472,55.49208 151.31736,48.95664 C146.30616,40.82736 138.21864,35.148 131.6484,35.148 C130.14504,35.148 128.82264,35.46816 127.69512,36.08064 C126.66504,36.63744 124.17336,38.28696 120.32448,41.19624 C118.0416,42.92232 114.95832,43.0824 112.5084,41.60688 C110.06544,40.1244 108.7848,37.3056 109.25808,34.50072 C110.02368,29.94888 110.30208,27.17184 110.30208,26.1 C110.30208,20.4276 100.18224,14.06616 86.64504,14.06616 C73.10088,14.06616 62.97408,20.4276 62.97408,26.1 C62.97408,27.15792 63.25944,29.92104 64.01808,34.47288 C64.49832,37.28472 63.20376,40.11048 60.76776,41.57904 C58.33176,43.06848 55.24152,42.89448 52.95864,41.18232 C48.06576,37.48656 46.08912,36.31728 45.58104,36.0528 C44.48136,35.44728 43.13808,35.13408 41.6556,35.13408 C35.07144,35.13408 26.98392,40.80648 21.97968,48.94272 C17.96376,55.4712 16.36296,62.82792 17.78976,68.18016 C18.47184,70.73448 19.75944,72.54408 21.6108,73.54632 C22.63392,74.09616 25.39704,75.29328 30.05328,76.97064 C32.8164,77.96592 34.6608,80.58984 34.65384,83.52 C34.64688,86.4432 32.80944,89.06712 30.03936,90.04848 C25.36224,91.72584 22.62696,92.90904 21.63168,93.45192 C19.74552,94.46808 18.45096,96.26376 17.76888,98.81808 C16.34208,104.17032 17.94984,111.51312 21.96576,118.0416 C26.97696,126.17088 35.07144,131.84328 41.64168,131.84328 C43.13808,131.84328 44.46744,131.53008 45.59496,130.9176 C46.09608,130.65312 48.05184,129.51864 52.95864,125.81592 C54.1836,124.92504 55.66608,124.43784 57.14856,124.43784 L57.14856,124.43784 Z M86.62416,117.95112 C67.63728,117.95112 52.2,102.49992 52.2,83.52 C52.2,64.54008 67.64424,49.1028 86.62416,49.1028 C105.60408,49.1028 121.05528,64.554 121.05528,83.52 C121.06224,102.50688 105.61104,117.95112 86.62416,117.95112 L86.62416,117.95112 Z M86.62416,63.00888 C75.31416,63.00888 66.12,72.21 66.12,83.52 C66.12,94.83 75.31416,104.0172 86.62416,104.0172 C97.93416,104.0172 107.13528,94.83 107.13528,83.52 C107.13528,72.21 97.93416,63.00888 86.62416,63.00888 L86.62416,63.00888 Z" id="Shape" sketch:type="MSShapeGroup"></path>
            </g>
            <g id="Brightness" sketch:type="MSLayerGroup" transform="translate(-1.000000, 176.000000)" fill="#414042">
                <g id="Group" sketch:type="MSShapeGroup">
                    <path d="M87.38976,135.72 C60.68424,135.72 38.96208,113.85864 38.96208,87 C38.96208,60.14136 60.68424,38.28 87.38976,38.28 C114.09528,38.28 135.81744,60.14136 135.81744,87 C135.81744,113.85864 114.09528,135.72 87.38976,135.72 L87.38976,135.72 Z M87.82824,52.2 C68.556,52.2 52.88208,67.80432 52.88208,87 C52.88208,106.18176 68.556,121.8 87.82824,121.8 C107.10048,121.8 122.7744,106.18176 122.7744,87 C122.7744,67.80432 107.09352,52.2 87.82824,52.2 L87.82824,52.2 Z" id="Shape"></path>
                    <path d="M87.2436,31.02768 C83.56176,31.02768 80.57592,28.1532 80.57592,24.61056 L80.57592,10.18248 C80.57592,6.63288 83.56176,3.76536 87.2436,3.76536 C90.9324,3.76536 93.91824,6.63288 93.91824,10.18248 L93.91824,24.61056 C93.91824,28.1532 90.9324,31.02768 87.2436,31.02768 L87.2436,31.02768 Z" id="Shape"></path>
                    <path d="M87.2436,170.52 C83.66616,170.52 80.7708,167.58288 80.7708,163.97064 L80.7708,149.23632 C80.7708,145.61712 83.66616,142.69392 87.2436,142.69392 C90.828,142.69392 93.72336,145.63104 93.72336,149.23632 L93.72336,163.97064 C93.7164,167.58288 90.82104,170.52 87.2436,170.52 L87.2436,170.52 Z" id="Shape"></path>
                    <path d="M164.1864,93.96 L150.37776,93.96 C146.98128,93.96 144.23208,90.84192 144.23208,87 C144.23208,83.15112 146.98128,80.04 150.37776,80.04 L164.1864,80.04 C167.58288,80.04 170.33208,83.15112 170.33208,87 C170.33208,90.84192 167.58984,93.96 164.1864,93.96 L164.1864,93.96 Z" id="Shape"></path>
                    <path d="M24.93768,93.96 L10.35648,93.96 C6.77208,93.96 3.86976,90.84192 3.86976,87 C3.86976,83.15112 6.77208,80.04 10.35648,80.04 L24.93768,80.04 C28.52208,80.04 31.4244,83.15112 31.4244,87 C31.4244,90.84192 28.52208,93.96 24.93768,93.96 L24.93768,93.96 Z" id="Shape"></path>
                    <path d="M142.28328,148.71432 C140.50152,148.71432 138.71976,148.03224 137.36256,146.67504 L126.2892,135.59472 C123.56784,132.8664 123.56784,128.47464 126.2892,125.75328 C129.01056,123.02496 133.40928,123.02496 136.13064,125.75328 L147.204,136.8336 C149.92536,139.55496 149.92536,143.95368 147.204,146.67504 C145.8468,148.0392 144.06504,148.71432 142.28328,148.71432 L142.28328,148.71432 Z" id="Shape"></path>
                    <path d="M43.85496,50.286 C42.0732,50.286 40.29144,49.60392 38.93424,48.24672 L27.86088,37.1664 C25.13952,34.44504 25.13952,30.04632 27.86088,27.32496 C30.58224,24.6036 34.98096,24.6036 37.70232,27.32496 L48.77568,38.40528 C51.49704,41.1336 51.49704,45.52536 48.77568,48.24672 C47.41152,49.60392 45.63672,50.286 43.85496,50.286 L43.85496,50.286 Z" id="Shape"></path>
                    <path d="M131.20992,50.29992 C129.42816,50.29992 127.6464,49.61784 126.2892,48.26064 C123.56784,45.53928 123.56784,41.14752 126.2892,38.4192 L137.36256,27.33888 C140.08392,24.61752 144.48264,24.61752 147.204,27.33888 C149.92536,30.06024 149.92536,34.45896 147.204,37.18032 L136.13064,48.26064 C134.77344,49.61784 132.99168,50.29992 131.20992,50.29992 L131.20992,50.29992 Z" id="Shape"></path>
                    <path d="M32.7816,148.71432 C30.99984,148.71432 29.21808,148.03224 27.86088,146.67504 C25.13952,143.95368 25.13952,139.55496 27.86088,136.8336 L38.93424,125.7672 C41.6556,123.04584 46.05432,123.04584 48.77568,125.7672 C51.49704,128.48856 51.49704,132.88032 48.77568,135.60864 L37.70232,146.67504 C36.34512,148.0392 34.56336,148.71432 32.7816,148.71432 L32.7816,148.71432 Z" id="Shape"></path>
                </g>
            </g>
            <g id="Button-Check" sketch:type="MSLayerGroup" transform="translate(176.000000, 176.000000)" fill="#414042">
                <g id="Group" sketch:type="MSShapeGroup">
                    <path d="M87.11136,170.52 C41.17536,170.52 3.80712,133.1448 3.80712,87.2088 C3.80712,41.27976 41.17536,3.91848 87.11136,3.91848 C133.05432,3.91848 170.4156,41.28672 170.4156,87.2088 C170.40864,133.1448 133.0404,170.52 87.11136,170.52 L87.11136,170.52 Z M87.11136,16.4952 C48.10752,16.4952 16.38384,48.22584 16.38384,87.2088 C16.38384,126.21264 48.12144,157.93632 87.11136,157.93632 C126.1152,157.93632 157.83888,126.21264 157.83888,87.2088 C157.83888,48.22584 126.10824,16.4952 87.11136,16.4952 L87.11136,16.4952 Z" id="Shape"></path>
                    <path d="M75.342,113.16264 C72.65544,110.48304 72.77376,106.04256 75.59256,103.20984 L109.3764,69.426 C112.18824,66.6072 116.6496,66.49584 119.3292,69.16848 L119.3292,69.16848 C121.99488,71.84112 121.88352,76.29552 119.07168,79.11432 L85.28784,112.89816 C82.476,115.72392 78.01464,115.83528 75.342,113.16264 L75.342,113.16264 L75.342,113.16264 Z" id="Shape"></path>
                    <path d="M54.74736,83.04672 C57.42696,80.37408 61.91616,80.53416 64.81152,83.42256 L84.27864,102.88968 C87.16008,105.77112 87.32712,110.2812 84.65448,112.95384 L84.65448,112.95384 C81.98184,115.62648 77.47872,115.45248 74.59728,112.578 L55.1232,93.10392 C52.24176,90.21552 52.07472,85.7124 54.74736,83.04672 L54.74736,83.04672 L54.74736,83.04672 Z" id="Shape"></path>
                </g>
            </g>
        </g>
    </g>
</svg>